<?xml version="1.0" standalone="no"?>
<!DOCTYPE svg PUBLIC "-//W3C//DTD SVG 20010904//EN"
 "http://www.w3.org/TR/2001/REC-SVG-20010904/DTD/svg10.dtd">
<svg version="1.0" xmlns="http://www.w3.org/2000/svg"
 width="700.000000pt" height="700.000000pt" viewBox="0 0 700.000000 700.000000"
 preserveAspectRatio="xMidYMid meet">
<metadata>
Created by potrace 1.14, written by Peter Selinger 2001-2017
</metadata>
<g transform="translate(0.000000,700.000000) scale(0.100000,-0.100000)"
fill="#000000" stroke="none">
<path d="M3219 6996 c-2 -2 -43 -7 -90 -10 -47 -4 -94 -8 -105 -10 -10 -2 -46
-7 -79 -10 -33 -4 -67 -9 -76 -12 -10 -2 -30 -6 -45 -9 -45 -6 -160 -32 -269
-60 -317 -82 -672 -240 -955 -423 -769 -498 -1314 -1284 -1514 -2182 -14 -63
-28 -131 -31 -150 -3 -19 -10 -60 -15 -90 -27 -165 -35 -285 -34 -545 0 -121
3 -258 8 -305 13 -136 14 -143 20 -190 11 -78 36 -211 62 -320 14 -58 27 -115
30 -127 9 -45 98 -303 141 -408 60 -146 173 -372 239 -478 95 -150 239 -352
306 -428 13 -15 39 -46 58 -69 37 -45 204 -214 286 -291 310 -290 766 -558
1194 -702 97 -33 273 -83 324 -93 11 -2 32 -6 46 -9 49 -11 186 -35 230 -41
25 -3 56 -7 70 -10 116 -19 535 -26 710 -11 52 5 97 10 100 12 3 1 33 6 68 9
35 4 109 16 165 27 606 119 1141 385 1612 799 101 89 279 274 365 380 25 30
48 57 51 60 13 11 140 191 192 270 167 257 305 550 400 845 35 108 75 256 83
305 2 14 9 45 14 70 21 95 47 276 58 394 10 110 9 541 -1 646 -28 290 -79 526
-172 807 -342 1024 -1147 1840 -2153 2182 -68 24 -131 44 -140 46 -9 2 -52 13
-94 25 -88 24 -90 24 -218 49 -89 18 -127 23 -232 36 -24 3 -61 8 -83 11 -44
6 -520 15 -526 10z"/>
</g>
</svg>
